<svg width="128" height="31" viewBox="0 0 128 31" fill="none" xmlns="http://www.w3.org/2000/svg">
<path d="M0.756 24.42L6.068 11.22H8.356L3.044 24.42H0.756Z" fill="#F43F5E"/>
<path d="M10.2257 22.5V10.58H18.1777V12.5H12.4017V15.796H17.4578V17.716H12.4017V22.5H10.2257ZM19.9047 22.5V13.796H22.0007V22.5H19.9047ZM19.9047 12.82V10.58H22.0007V12.82H19.9047ZM24.416 22.5V13.796H26.384V15.732L26.224 15.444C26.4267 14.7933 26.7413 14.34 27.168 14.084C27.6053 13.828 28.128 13.7 28.736 13.7H29.248V15.556H28.496C27.8987 15.556 27.4187 15.7427 27.056 16.116C26.6933 16.4787 26.512 16.9907 26.512 17.652V22.5H24.416ZM34.1924 22.692C33.2644 22.692 32.4537 22.4733 31.7604 22.036C31.0777 21.588 30.6084 20.9853 30.3524 20.228L31.9204 19.476C32.1444 19.9667 32.4537 20.3507 32.8484 20.628C33.2537 20.9053 33.7017 21.044 34.1924 21.044C34.5764 21.044 34.8804 20.9587 35.1044 20.788C35.3284 20.6173 35.4404 20.3933 35.4404 20.116C35.4404 19.9453 35.3924 19.8067 35.2964 19.7C35.211 19.5827 35.0884 19.4867 34.9284 19.412C34.779 19.3267 34.6137 19.2573 34.4324 19.204L33.0084 18.804C32.2724 18.5907 31.7124 18.2653 31.3284 17.828C30.955 17.3907 30.7684 16.8733 30.7684 16.276C30.7684 15.7427 30.9017 15.2787 31.1684 14.884C31.4457 14.4787 31.8244 14.164 32.3044 13.94C32.795 13.716 33.355 13.604 33.9844 13.604C34.8057 13.604 35.531 13.8013 36.1604 14.196C36.7897 14.5907 37.2377 15.1453 37.5044 15.86L35.9044 16.612C35.755 16.2173 35.5044 15.9027 35.1524 15.668C34.8004 15.4333 34.4057 15.316 33.9684 15.316C33.6164 15.316 33.339 15.396 33.1364 15.556C32.9337 15.716 32.8324 15.924 32.8324 16.18C32.8324 16.34 32.875 16.4787 32.9604 16.596C33.0457 16.7133 33.163 16.8093 33.3124 16.884C33.4724 16.9587 33.6537 17.028 33.8564 17.092L35.2484 17.508C35.963 17.7213 36.5124 18.0413 36.8964 18.468C37.291 18.8947 37.4884 19.4173 37.4884 20.036C37.4884 20.5587 37.3497 21.0227 37.0724 21.428C36.795 21.8227 36.411 22.132 35.9204 22.356C35.4297 22.58 34.8537 22.692 34.1924 22.692ZM43.5471 22.596C42.5658 22.596 41.8031 22.3293 41.2591 21.796C40.7258 21.252 40.4591 20.4893 40.4591 19.508V15.668H38.9551V13.796H39.1151C39.5418 13.796 39.8725 13.684 40.1071 13.46C40.3418 13.236 40.4591 12.9107 40.4591 12.484V11.812H42.5551V13.796H44.5551V15.668H42.5551V19.396C42.5551 19.684 42.6031 19.9293 42.6991 20.132C42.8058 20.3347 42.9658 20.4893 43.1791 20.596C43.4031 20.7027 43.6858 20.756 44.0271 20.756C44.1018 20.756 44.1871 20.7507 44.2831 20.74C44.3898 20.7293 44.4911 20.7187 44.5871 20.708V22.5C44.4378 22.5213 44.2671 22.5427 44.0751 22.564C43.8831 22.5853 43.7071 22.596 43.5471 22.596ZM52.7165 22.692C51.8418 22.692 51.0258 22.5373 50.2685 22.228C49.5112 21.9187 48.8498 21.4867 48.2845 20.932C47.7192 20.3773 47.2765 19.7267 46.9565 18.98C46.6472 18.2227 46.4925 17.4067 46.4925 16.532C46.4925 15.6467 46.6472 14.8307 46.9565 14.084C47.2658 13.3373 47.7032 12.6867 48.2685 12.132C48.8338 11.5773 49.4952 11.1507 50.2525 10.852C51.0098 10.5427 51.8312 10.388 52.7165 10.388C53.6018 10.388 54.4232 10.5427 55.1805 10.852C55.9378 11.1613 56.5992 11.5933 57.1645 12.148C57.7298 12.692 58.1672 13.3373 58.4765 14.084C58.7965 14.8307 58.9565 15.6467 58.9565 16.532C58.9565 17.4067 58.7965 18.2227 58.4765 18.98C58.1565 19.7267 57.7138 20.3773 57.1485 20.932C56.5832 21.4867 55.9218 21.9187 55.1645 22.228C54.4178 22.5373 53.6018 22.692 52.7165 22.692ZM52.7165 20.708C53.3032 20.708 53.8418 20.6067 54.3325 20.404C54.8232 20.1907 55.2498 19.8973 55.6125 19.524C55.9858 19.1507 56.2685 18.708 56.4605 18.196C56.6632 17.684 56.7645 17.1293 56.7645 16.532C56.7645 15.9347 56.6632 15.3853 56.4605 14.884C56.2685 14.372 55.9858 13.9293 55.6125 13.556C55.2498 13.172 54.8232 12.8787 54.3325 12.676C53.8418 12.4733 53.3032 12.372 52.7165 12.372C52.1405 12.372 51.6072 12.4733 51.1165 12.676C50.6258 12.8787 50.1938 13.172 49.8205 13.556C49.4578 13.9293 49.1752 14.372 48.9725 14.884C48.7698 15.3853 48.6685 15.9347 48.6685 16.532C48.6685 17.1293 48.7698 17.684 48.9725 18.196C49.1752 18.708 49.4578 19.1507 49.8205 19.524C50.1938 19.8973 50.6258 20.1907 51.1165 20.404C51.6072 20.6067 52.1405 20.708 52.7165 20.708ZM60.0989 22.5L63.1389 18.132L60.0829 13.796H62.5469L64.9309 17.316H63.8269L66.2109 13.796H68.6589L65.6189 18.132L68.6429 22.5H66.1949L63.8429 18.996H64.9149L62.5629 22.5H60.0989ZM78.0405 22.692C77.2832 22.692 76.5792 22.5533 75.9285 22.276C75.2885 21.9987 74.7338 21.6147 74.2645 21.124C73.8058 20.6227 73.4698 20.0413 73.2565 19.38L75.0645 18.596C75.3525 19.2787 75.7685 19.8173 76.3125 20.212C76.8565 20.596 77.4698 20.788 78.1525 20.788C78.5365 20.788 78.8672 20.7293 79.1445 20.612C79.4325 20.484 79.6512 20.3133 79.8005 20.1C79.9605 19.8867 80.0405 19.6307 80.0405 19.332C80.0405 18.98 79.9338 18.692 79.7205 18.468C79.5178 18.2333 79.2085 18.052 78.7925 17.924L76.5045 17.188C75.5765 16.9 74.8778 16.468 74.4085 15.892C73.9392 15.316 73.7045 14.6387 73.7045 13.86C73.7045 13.1773 73.8698 12.5747 74.2005 12.052C74.5418 11.5293 75.0112 11.124 75.6085 10.836C76.2165 10.5373 76.9098 10.388 77.6885 10.388C78.4032 10.388 79.0592 10.516 79.6565 10.772C80.2538 11.0173 80.7658 11.364 81.1925 11.812C81.6298 12.2493 81.9552 12.7667 82.1685 13.364L80.3765 14.164C80.1418 13.5667 79.7898 13.108 79.3205 12.788C78.8512 12.4573 78.3072 12.292 77.6885 12.292C77.3258 12.292 77.0058 12.356 76.7285 12.484C76.4512 12.6013 76.2325 12.772 76.0725 12.996C75.9232 13.2093 75.8485 13.4653 75.8485 13.764C75.8485 14.0947 75.9552 14.388 76.1685 14.644C76.3818 14.8893 76.7072 15.0813 77.1445 15.22L79.3365 15.908C80.2858 16.2173 80.9952 16.644 81.4645 17.188C81.9445 17.732 82.1845 18.404 82.1845 19.204C82.1845 19.8867 82.0085 20.4893 81.6565 21.012C81.3045 21.5347 80.8192 21.9453 80.2005 22.244C79.5818 22.5427 78.8618 22.692 78.0405 22.692ZM88.4159 22.596C87.4345 22.596 86.6719 22.3293 86.1279 21.796C85.5945 21.252 85.3279 20.4893 85.3279 19.508V15.668H83.8239V13.796H83.9839C84.4105 13.796 84.7412 13.684 84.9759 13.46C85.2105 13.236 85.3279 12.9107 85.3279 12.484V11.812H87.4239V13.796H89.4239V15.668H87.4239V19.396C87.4239 19.684 87.4719 19.9293 87.5679 20.132C87.6745 20.3347 87.8345 20.4893 88.0479 20.596C88.2719 20.7027 88.5545 20.756 88.8959 20.756C88.9705 20.756 89.0559 20.7507 89.1519 20.74C89.2585 20.7293 89.3599 20.7187 89.4559 20.708V22.5C89.3065 22.5213 89.1359 22.5427 88.9439 22.564C88.7519 22.5853 88.5759 22.596 88.4159 22.596ZM94.6412 22.692C93.9692 22.692 93.3826 22.5427 92.8812 22.244C92.3906 21.9453 92.0119 21.5293 91.7452 20.996C91.4892 20.4627 91.3612 19.8387 91.3612 19.124V13.796H93.4572V18.948C93.4572 19.3107 93.5266 19.6307 93.6652 19.908C93.8146 20.1747 94.0226 20.388 94.2892 20.548C94.5666 20.6973 94.8759 20.772 95.2172 20.772C95.5586 20.772 95.8626 20.6973 96.1292 20.548C96.3959 20.388 96.6039 20.1693 96.7532 19.892C96.9026 19.6147 96.9772 19.284 96.9772 18.9V13.796H99.0732V22.5H97.0892V20.788L97.2652 21.092C97.0626 21.6253 96.7266 22.0253 96.2572 22.292C95.7986 22.5587 95.2599 22.692 94.6412 22.692ZM105.55 22.692C104.707 22.692 103.955 22.4947 103.294 22.1C102.632 21.6947 102.11 21.1453 101.726 20.452C101.342 19.7587 101.15 18.9907 101.15 18.148C101.15 17.2947 101.342 16.5267 101.726 15.844C102.11 15.1613 102.632 14.6173 103.294 14.212C103.966 13.8067 104.712 13.604 105.534 13.604C106.195 13.604 106.782 13.7373 107.294 14.004C107.816 14.26 108.227 14.6227 108.526 15.092L108.206 15.524V10.388H110.302V22.5H108.318V20.82L108.542 21.236C108.243 21.7053 107.827 22.068 107.294 22.324C106.76 22.5693 106.179 22.692 105.55 22.692ZM105.774 20.772C106.254 20.772 106.675 20.66 107.038 20.436C107.4 20.212 107.683 19.9027 107.886 19.508C108.099 19.1133 108.206 18.66 108.206 18.148C108.206 17.6467 108.099 17.1987 107.886 16.804C107.683 16.3987 107.4 16.084 107.038 15.86C106.675 15.636 106.254 15.524 105.774 15.524C105.304 15.524 104.883 15.6413 104.51 15.876C104.136 16.1 103.843 16.4093 103.63 16.804C103.427 17.188 103.326 17.636 103.326 18.148C103.326 18.66 103.427 19.1133 103.63 19.508C103.843 19.9027 104.136 20.212 104.51 20.436C104.883 20.66 105.304 20.772 105.774 20.772ZM112.732 22.5V13.796H114.828V22.5H112.732ZM112.732 12.82V10.58H114.828V12.82H112.732ZM121.499 22.692C120.646 22.692 119.867 22.4947 119.163 22.1C118.47 21.7053 117.915 21.1667 117.499 20.484C117.094 19.8013 116.891 19.0227 116.891 18.148C116.891 17.2733 117.094 16.4947 117.499 15.812C117.915 15.1293 118.47 14.5907 119.163 14.196C119.856 13.8013 120.635 13.604 121.499 13.604C122.352 13.604 123.126 13.8013 123.819 14.196C124.512 14.5907 125.062 15.1293 125.467 15.812C125.883 16.484 126.091 17.2627 126.091 18.148C126.091 19.0227 125.883 19.8013 125.467 20.484C125.051 21.1667 124.496 21.7053 123.803 22.1C123.11 22.4947 122.342 22.692 121.499 22.692ZM121.499 20.772C121.968 20.772 122.379 20.66 122.731 20.436C123.094 20.212 123.376 19.9027 123.579 19.508C123.792 19.1027 123.899 18.6493 123.899 18.148C123.899 17.636 123.792 17.188 123.579 16.804C123.376 16.4093 123.094 16.1 122.731 15.876C122.379 15.6413 121.968 15.524 121.499 15.524C121.019 15.524 120.598 15.6413 120.235 15.876C119.872 16.1 119.584 16.4093 119.371 16.804C119.168 17.188 119.067 17.636 119.067 18.148C119.067 18.6493 119.168 19.1027 119.371 19.508C119.584 19.9027 119.872 20.212 120.235 20.436C120.598 20.66 121.019 20.772 121.499 20.772Z" fill="#18181B"/>
</svg>
