<svg width="40" height="40" viewBox="0 0 40 40" fill="none" xmlns="http://www.w3.org/2000/svg">
<path d="M33.967 5.76927L26.667 3.33594C26.667 5.10405 25.9646 6.79974 24.7144 8.04998C23.4641 9.30023 21.7684 10.0026 20.0003 10.0026C18.2322 10.0026 16.5365 9.30023 15.2863 8.04998C14.036 6.79974 13.3336 5.10405 13.3336 3.33594L6.03364 5.76927C5.27928 6.02059 4.63961 6.5333 4.23007 7.21484C3.82053 7.89639 3.66811 8.70188 3.80031 9.48594L4.76698 15.2693C4.83044 15.6608 5.03144 16.0168 5.33388 16.2735C5.63631 16.5301 6.02035 16.6704 6.41698 16.6693H10.0003V33.3359C10.0003 35.1693 11.5003 36.6693 13.3336 36.6693H26.667C27.551 36.6693 28.3989 36.3181 29.024 35.693C29.6491 35.0678 30.0003 34.22 30.0003 33.3359V16.6693H33.5836C33.9803 16.6704 34.3643 16.5301 34.6667 16.2735C34.9692 16.0168 35.1702 15.6608 35.2336 15.2693L36.2003 9.48594C36.3325 8.70188 36.1801 7.89639 35.7706 7.21484C35.361 6.5333 34.7213 6.02059 33.967 5.76927Z" stroke="white" stroke-width="3.85" stroke-linecap="round" stroke-linejoin="round"/>
</svg>
