<svg width="40" height="40" viewBox="0 0 40 40" fill="none" xmlns="http://www.w3.org/2000/svg">
<path d="M26.666 21.6687L35.371 27.4721C35.4965 27.5556 35.6423 27.6035 35.7929 27.6107C35.9434 27.6179 36.0931 27.5841 36.226 27.513C36.3589 27.4418 36.47 27.336 36.5475 27.2067C36.625 27.0774 36.6659 26.9295 36.666 26.7787V13.1187C36.6661 12.9721 36.6274 12.8281 36.554 12.7011C36.4805 12.5742 36.3749 12.4689 36.2478 12.3959C36.1206 12.3229 35.9765 12.2847 35.8299 12.2852C35.6832 12.2857 35.5393 12.3248 35.4127 12.3987L26.666 17.5021" stroke="white" stroke-width="3.85" stroke-linecap="round" stroke-linejoin="round"/>
<path d="M23.334 10H6.66732C4.82637 10 3.33398 11.4924 3.33398 13.3333V26.6667C3.33398 28.5076 4.82637 30 6.66732 30H23.334C25.1749 30 26.6673 28.5076 26.6673 26.6667V13.3333C26.6673 11.4924 25.1749 10 23.334 10Z" stroke="white" stroke-width="3.85" stroke-linecap="round" stroke-linejoin="round"/>
</svg>
