<svg width="40" height="40" viewBox="0 0 40 40" fill="none" xmlns="http://www.w3.org/2000/svg">
<path d="M26.6673 16.668C26.6673 18.4361 25.9649 20.1318 24.7147 21.382C23.4645 22.6323 21.7688 23.3346 20.0007 23.3346C18.2325 23.3346 16.5368 22.6323 15.2866 21.382C14.0364 20.1318 13.334 18.4361 13.334 16.668" stroke="white" stroke-width="3.85" stroke-linecap="round" stroke-linejoin="round"/>
<path d="M5.17188 10.0586H34.8285" stroke="white" stroke-width="3.85" stroke-linecap="round" stroke-linejoin="round"/>
<path d="M5.66667 9.11427C5.23393 9.69126 5 10.393 5 11.1143V33.3359C5 34.22 5.35119 35.0678 5.97631 35.693C6.60143 36.3181 7.44928 36.6693 8.33333 36.6693H31.6667C32.5507 36.6693 33.3986 36.3181 34.0237 35.693C34.6488 35.0678 35 34.22 35 33.3359V11.1143C35 10.393 34.7661 9.69126 34.3333 9.11427L31 4.66927C30.6895 4.25528 30.2869 3.91927 29.824 3.68785C29.3612 3.45642 28.8508 3.33594 28.3333 3.33594H11.6667C11.1492 3.33594 10.6388 3.45642 10.176 3.68785C9.7131 3.91927 9.31049 4.25528 9 4.66927L5.66667 9.11427Z" stroke="white" stroke-width="3.85" stroke-linecap="round" stroke-linejoin="round"/>
</svg>
