<svg width="40" height="40" viewBox="0 0 40 40" fill="none" xmlns="http://www.w3.org/2000/svg">
<path d="M20.0007 36.6693C15.5804 36.6693 11.3411 34.9133 8.21554 31.7877C5.08993 28.6621 3.33398 24.4229 3.33398 20.0026C3.33398 15.5823 5.08993 11.3431 8.21554 8.21749C11.3411 5.09188 15.5804 3.33594 20.0007 3.33594C24.4209 3.33594 28.6602 4.91629 31.7858 7.72934C34.9114 10.5424 36.6673 14.3577 36.6673 18.3359C36.6673 20.5461 35.7893 22.6657 34.2265 24.2285C32.6637 25.7913 30.5441 26.6693 28.334 26.6693H24.584C24.0423 26.6693 23.5114 26.8201 23.0506 27.1049C22.5898 27.3896 22.2175 27.7971 21.9752 28.2816C21.733 28.766 21.6305 29.3084 21.6791 29.8479C21.7277 30.3873 21.9257 30.9026 22.2507 31.3359L22.7506 32.0026C23.0756 32.4359 23.2736 32.9512 23.3222 33.4907C23.3708 34.0301 23.2683 34.5725 23.0261 35.057C22.7838 35.5415 22.4115 35.9489 21.9507 36.2337C21.4899 36.5184 20.959 36.6693 20.4173 36.6693H20.0007Z" stroke="white" stroke-width="3.85" stroke-linecap="round" stroke-linejoin="round"/>
<path d="M22.4993 11.6667C22.9596 11.6667 23.3327 11.2936 23.3327 10.8333C23.3327 10.3731 22.9596 10 22.4993 10C22.0391 10 21.666 10.3731 21.666 10.8333C21.666 11.2936 22.0391 11.6667 22.4993 11.6667Z" fill="white" stroke="white" stroke-width="3.85" stroke-linecap="round" stroke-linejoin="round"/>
<path d="M29.1673 18.3346C29.6276 18.3346 30.0007 17.9615 30.0007 17.5013C30.0007 17.0411 29.6276 16.668 29.1673 16.668C28.7071 16.668 28.334 17.0411 28.334 17.5013C28.334 17.9615 28.7071 18.3346 29.1673 18.3346Z" fill="white" stroke="white" stroke-width="3.85" stroke-linecap="round" stroke-linejoin="round"/>
<path d="M10.8333 21.6667C11.2936 21.6667 11.6667 21.2936 11.6667 20.8333C11.6667 20.3731 11.2936 20 10.8333 20C10.3731 20 10 20.3731 10 20.8333C10 21.2936 10.3731 21.6667 10.8333 21.6667Z" fill="white" stroke="white" stroke-width="3.85" stroke-linecap="round" stroke-linejoin="round"/>
<path d="M14.1673 13.3346C14.6276 13.3346 15.0007 12.9615 15.0007 12.5013C15.0007 12.0411 14.6276 11.668 14.1673 11.668C13.7071 11.668 13.334 12.0411 13.334 12.5013C13.334 12.9615 13.7071 13.3346 14.1673 13.3346Z" fill="white" stroke="white" stroke-width="3.85" stroke-linecap="round" stroke-linejoin="round"/>
</svg>
