<svg width="33" height="32" viewBox="0 0 33 32" fill="none" xmlns="http://www.w3.org/2000/svg">
<path d="M13.9088 20.6683C13.7897 20.2069 13.5492 19.7858 13.2122 19.4488C12.8753 19.1118 12.4542 18.8713 11.9928 18.7523L3.81276 16.643C3.6732 16.6034 3.55037 16.5193 3.46291 16.4036C3.37545 16.2878 3.32812 16.1467 3.32812 16.0016C3.32812 15.8566 3.37545 15.7154 3.46291 15.5997C3.55037 15.484 3.6732 15.3999 3.81276 15.3603L11.9928 13.2496C12.454 13.1307 12.875 12.8904 13.212 12.5537C13.5489 12.217 13.7895 11.7962 13.9088 11.335L16.0181 3.15497C16.0573 3.01486 16.1413 2.89142 16.2572 2.80349C16.3731 2.71556 16.5146 2.66797 16.6601 2.66797C16.8056 2.66797 16.9471 2.71556 17.063 2.80349C17.1789 2.89142 17.2629 3.01486 17.3021 3.15497L19.4101 11.335C19.5291 11.7964 19.7696 12.2175 20.1066 12.5545C20.4436 12.8914 20.8647 13.1319 21.3261 13.251L29.5061 15.359C29.6468 15.3978 29.7708 15.4816 29.8592 15.5977C29.9476 15.7138 29.9955 15.8557 29.9955 16.0016C29.9955 16.1476 29.9476 16.2894 29.8592 16.4055C29.7708 16.5216 29.6468 16.6055 29.5061 16.6443L21.3261 18.7523C20.8647 18.8713 20.4436 19.1118 20.1066 19.4488C19.7696 19.7858 19.5291 20.2069 19.4101 20.6683L17.3008 28.8483C17.2615 28.9884 17.1776 29.1118 17.0617 29.1998C16.9457 29.2877 16.8043 29.3353 16.6588 29.3353C16.5133 29.3353 16.3718 29.2877 16.2559 29.1998C16.1399 29.1118 16.056 28.9884 16.0168 28.8483L13.9088 20.6683Z" stroke="white" stroke-width="2.99167" stroke-linecap="round" stroke-linejoin="round"/>
<path d="M27.3262 4V9.33333" stroke="white" stroke-width="2.99167" stroke-linecap="round" stroke-linejoin="round"/>
<path d="M29.9935 6.66797H24.6602" stroke="white" stroke-width="2.99167" stroke-linecap="round" stroke-linejoin="round"/>
<path d="M5.99414 22.668V25.3346" stroke="white" stroke-width="2.99167" stroke-linecap="round" stroke-linejoin="round"/>
<path d="M7.32682 24H4.66016" stroke="white" stroke-width="2.99167" stroke-linecap="round" stroke-linejoin="round"/>
</svg>
