<svg width="20" height="21" viewBox="0 0 20 21" fill="none" xmlns="http://www.w3.org/2000/svg">
<path d="M14.166 1.81641H5.83268C3.5315 1.81641 1.66602 3.68189 1.66602 5.98307V14.3164C1.66602 16.6176 3.5315 18.4831 5.83268 18.4831H14.166C16.4672 18.4831 18.3327 16.6176 18.3327 14.3164V5.98307C18.3327 3.68189 16.4672 1.81641 14.166 1.81641Z" stroke="#52525B" stroke-width="1.66667" stroke-linecap="round" stroke-linejoin="round"/>
<path d="M13.3337 9.62174C13.4366 10.3153 13.3181 11.0236 12.9952 11.6459C12.6723 12.2682 12.1614 12.7729 11.5351 13.0881C10.9088 13.4033 10.1991 13.5131 9.5069 13.4017C8.81468 13.2903 8.17521 12.9635 7.67944 12.4677C7.18367 11.9719 6.85685 11.3325 6.74546 10.6402C6.63408 9.94803 6.74379 9.23831 7.05901 8.61205C7.37423 7.98578 7.8789 7.47485 8.50123 7.15194C9.12356 6.82902 9.83187 6.71056 10.5254 6.8134C11.2328 6.91831 11.8878 7.24796 12.3935 7.75366C12.8992 8.25936 13.2288 8.9143 13.3337 9.62174Z" stroke="#52525B" stroke-width="1.66667" stroke-linecap="round" stroke-linejoin="round"/>
<path d="M14.584 5.56641H14.5923" stroke="#52525B" stroke-width="1.66667" stroke-linecap="round" stroke-linejoin="round"/>
</svg>
