<svg width="16" height="17" viewBox="0 0 16 17" fill="none" xmlns="http://www.w3.org/2000/svg">
<path d="M2.66699 9.48221C2.54083 9.48264 2.41714 9.44726 2.31029 9.38019C2.20344 9.31312 2.11781 9.21711 2.06335 9.10331C2.0089 8.98951 1.98785 8.8626 2.00265 8.73731C2.01746 8.61202 2.06751 8.49351 2.14699 8.39554L8.74699 1.59554C8.7965 1.53839 8.86396 1.49978 8.93831 1.48603C9.01266 1.47228 9.08947 1.48421 9.15614 1.51987C9.22281 1.55554 9.27538 1.6128 9.30521 1.68228C9.33504 1.75175 9.34037 1.8293 9.32032 1.90221L8.04032 5.91554C8.00258 6.01655 7.9899 6.12522 8.00338 6.23221C8.01686 6.3392 8.05609 6.44133 8.11771 6.52982C8.17933 6.61832 8.2615 6.69055 8.35717 6.74031C8.45284 6.79008 8.55915 6.81589 8.66699 6.81554H13.3337C13.4598 6.81511 13.5835 6.85048 13.6904 6.91755C13.7972 6.98462 13.8828 7.08063 13.9373 7.19443C13.9917 7.30823 14.0128 7.43515 13.998 7.56043C13.9832 7.68572 13.9331 7.80423 13.8537 7.90221L7.25365 14.7022C7.20415 14.7594 7.13668 14.798 7.06233 14.8117C6.98798 14.8255 6.91117 14.8135 6.8445 14.7779C6.77783 14.7422 6.72526 14.6849 6.69543 14.6155C6.6656 14.546 6.66027 14.4684 6.68032 14.3955L7.96032 10.3822C7.99806 10.2812 8.01074 10.1725 7.99726 10.0655C7.98378 9.95854 7.94455 9.85642 7.88293 9.76792C7.82131 9.67942 7.73914 9.6072 7.64347 9.55743C7.5478 9.50767 7.44149 9.48185 7.33365 9.48221H2.66699Z" stroke="#3B82F6" stroke-width="1.33333" stroke-linecap="round" stroke-linejoin="round"/>
</svg>
