<svg width="20" height="21" viewBox="0 0 20 21" fill="none" xmlns="http://www.w3.org/2000/svg">
<path d="M13.334 6.81641C14.6601 6.81641 15.9318 7.34319 16.8695 8.28087C17.8072 9.21855 18.334 10.4903 18.334 11.8164V17.6497H15.0007V11.8164C15.0007 11.3744 14.8251 10.9505 14.5125 10.6379C14.1999 10.3253 13.776 10.1497 13.334 10.1497C12.892 10.1497 12.468 10.3253 12.1555 10.6379C11.8429 10.9505 11.6673 11.3744 11.6673 11.8164V17.6497H8.33398V11.8164C8.33398 10.4903 8.86077 9.21855 9.79845 8.28087C10.7361 7.34319 12.0079 6.81641 13.334 6.81641Z" stroke="#52525B" stroke-width="1.66667" stroke-linecap="round" stroke-linejoin="round"/>
<path d="M4.99935 7.64844H1.66602V17.6484H4.99935V7.64844Z" stroke="#52525B" stroke-width="1.66667" stroke-linecap="round" stroke-linejoin="round"/>
<path d="M3.33268 5.14974C4.25316 5.14974 4.99935 4.40355 4.99935 3.48307C4.99935 2.5626 4.25316 1.81641 3.33268 1.81641C2.41221 1.81641 1.66602 2.5626 1.66602 3.48307C1.66602 4.40355 2.41221 5.14974 3.33268 5.14974Z" stroke="#52525B" stroke-width="1.66667" stroke-linecap="round" stroke-linejoin="round"/>
</svg>
