<svg width="42" height="43" viewBox="0 0 42 43" fill="none" xmlns="http://www.w3.org/2000/svg">
<path d="M20.168 4.61763C20.2447 4.46268 20.3632 4.33226 20.51 4.24107C20.6569 4.14988 20.8264 4.10156 20.9992 4.10156C21.1721 4.10156 21.3416 4.14988 21.4885 4.24107C21.6353 4.33226 21.7538 4.46268 21.8305 4.61763L25.873 12.8059C26.1393 13.3448 26.5324 13.8111 27.0186 14.1647C27.5048 14.5182 28.0695 14.7486 28.6642 14.8359L37.7047 16.1589C37.876 16.1837 38.037 16.256 38.1694 16.3675C38.3017 16.479 38.4002 16.6253 38.4538 16.7899C38.5073 16.9545 38.5137 17.1308 38.4723 17.2989C38.4308 17.4669 38.3432 17.62 38.2192 17.7409L31.6812 24.1074C31.2501 24.5276 30.9275 25.0462 30.7412 25.6187C30.5549 26.1912 30.5106 26.8004 30.612 27.3939L32.1555 36.3889C32.1857 36.5601 32.1672 36.7364 32.1021 36.8976C32.037 37.0588 31.9279 37.1984 31.7872 37.3006C31.6465 37.4028 31.48 37.4634 31.3065 37.4754C31.1331 37.4875 30.9597 37.4506 30.8062 37.3689L22.7247 33.1199C22.1922 32.8403 21.5998 32.6942 20.9984 32.6942C20.3969 32.6942 19.8045 32.8403 19.272 33.1199L11.1922 37.3689C11.0388 37.4501 10.8657 37.4866 10.6925 37.4743C10.5194 37.462 10.3532 37.4014 10.2128 37.2993C10.0724 37.1972 9.96345 37.0577 9.89839 36.8968C9.83333 36.7358 9.81474 36.5599 9.84474 36.3889L11.3865 27.3956C11.4883 26.8019 11.4442 26.1923 11.2579 25.6195C11.0717 25.0466 10.7488 24.5276 10.3172 24.1074L3.77924 17.7426C3.65428 17.6219 3.56573 17.4686 3.52368 17.3C3.48162 17.1314 3.48776 16.9545 3.54138 16.7892C3.595 16.624 3.69396 16.4771 3.82698 16.3653C3.95999 16.2536 4.12172 16.1814 4.29374 16.1571L13.3325 14.8359C13.9279 14.7492 14.4934 14.5192 14.9803 14.1656C15.4671 13.812 15.8607 13.3454 16.1272 12.8059L20.168 4.61763Z" stroke="white" stroke-width="3.85" stroke-linecap="round" stroke-linejoin="round"/>
</svg>
