<svg width="40" height="41" viewBox="0 0 40 41" fill="none" xmlns="http://www.w3.org/2000/svg">
<path d="M26.6663 5.15039C25.7823 5.15039 24.9344 5.50158 24.3093 6.1267C23.6842 6.75182 23.333 7.59967 23.333 8.48372V18.4837C23.333 19.3678 23.6842 20.2156 24.3093 20.8407C24.9344 21.4659 25.7823 21.8171 26.6663 21.8171C27.1084 21.8171 27.5323 21.9927 27.8449 22.3052C28.1574 22.6178 28.333 23.0417 28.333 23.4837V25.1504C28.333 26.0344 27.9818 26.8823 27.3567 27.5074C26.7316 28.1325 25.8837 28.4837 24.9997 28.4837C24.5576 28.4837 24.1337 28.6593 23.8212 28.9719C23.5086 29.2844 23.333 29.7084 23.333 30.1504V33.4837C23.333 33.9258 23.5086 34.3497 23.8212 34.6622C24.1337 34.9748 24.5576 35.1504 24.9997 35.1504C27.6518 35.1504 30.1954 34.0968 32.0707 32.2215C33.9461 30.3461 34.9997 27.8026 34.9997 25.1504V8.48372C34.9997 7.59967 34.6485 6.75182 34.0234 6.1267C33.3982 5.50158 32.5504 5.15039 31.6663 5.15039H26.6663Z" stroke="white" stroke-width="3.33333" stroke-linecap="round" stroke-linejoin="round"/>
<path d="M8.33333 5.15039C7.44928 5.15039 6.60143 5.50158 5.97631 6.1267C5.35119 6.75182 5 7.59967 5 8.48372V18.4837C5 19.3678 5.35119 20.2156 5.97631 20.8407C6.60143 21.4659 7.44928 21.8171 8.33333 21.8171C8.77536 21.8171 9.19928 21.9927 9.51184 22.3052C9.8244 22.6178 10 23.0417 10 23.4837V25.1504C10 26.0344 9.64881 26.8823 9.02369 27.5074C8.39857 28.1325 7.55072 28.4837 6.66667 28.4837C6.22464 28.4837 5.80072 28.6593 5.48816 28.9719C5.17559 29.2844 5 29.7084 5 30.1504V33.4837C5 33.9258 5.17559 34.3497 5.48816 34.6622C5.80072 34.9748 6.22464 35.1504 6.66667 35.1504C9.31883 35.1504 11.8624 34.0968 13.7377 32.2215C15.6131 30.3461 16.6667 27.8026 16.6667 25.1504V8.48372C16.6667 7.59967 16.3155 6.75182 15.6904 6.1267C15.0652 5.50158 14.2174 5.15039 13.3333 5.15039H8.33333Z" stroke="white" stroke-width="3.33333" stroke-linecap="round" stroke-linejoin="round"/>
</svg>
