<svg width="17" height="16" viewBox="0 0 17 16" fill="none" xmlns="http://www.w3.org/2000/svg">
<path d="M8.36292 1.53058C8.39213 1.47155 8.43727 1.42187 8.49322 1.38713C8.54917 1.35239 8.61372 1.33398 8.67959 1.33398C8.74545 1.33398 8.81 1.35239 8.86595 1.38713C8.9219 1.42187 8.96704 1.47155 8.99625 1.53058L10.5363 4.64991C10.6377 4.85523 10.7875 5.03285 10.9727 5.16755C11.1579 5.30225 11.373 5.38999 11.5996 5.42325L15.0436 5.92725C15.1088 5.9367 15.1702 5.96423 15.2206 6.00671C15.271 6.0492 15.3085 6.10495 15.3289 6.16765C15.3493 6.23036 15.3518 6.29752 15.336 6.36154C15.3202 6.42556 15.2868 6.48388 15.2396 6.52991L12.7489 8.95525C12.5847 9.11531 12.4618 9.3129 12.3908 9.531C12.3199 9.7491 12.303 9.98117 12.3416 10.2072L12.9296 13.6339C12.9411 13.6991 12.9341 13.7663 12.9093 13.8277C12.8844 13.8891 12.8429 13.9423 12.7893 13.9812C12.7357 14.0202 12.6722 14.0432 12.6062 14.0478C12.5401 14.0524 12.4741 14.0384 12.4156 14.0072L9.33692 12.3886C9.13406 12.2821 8.90837 12.2264 8.67925 12.2264C8.45013 12.2264 8.22444 12.2821 8.02159 12.3886L4.94359 14.0072C4.88514 14.0382 4.81918 14.0521 4.75322 14.0474C4.68726 14.0427 4.62393 14.0196 4.57045 13.9807C4.51697 13.9418 4.47547 13.8887 4.45069 13.8274C4.4259 13.7661 4.41882 13.699 4.43025 13.6339L5.01759 10.2079C5.05638 9.98174 5.03957 9.74951 4.96861 9.53128C4.89765 9.31304 4.77466 9.11535 4.61025 8.95525L2.11959 6.53058C2.07198 6.4846 2.03825 6.42618 2.02223 6.36196C2.00621 6.29775 2.00854 6.23033 2.02897 6.16737C2.0494 6.10442 2.0871 6.04847 2.13777 6.0059C2.18844 5.96333 2.25005 5.93585 2.31559 5.92658L5.75892 5.42325C5.98576 5.39025 6.20118 5.30262 6.38664 5.1679C6.5721 5.03319 6.72205 4.85543 6.82359 4.64991L8.36292 1.53058Z" stroke="#22C55E" stroke-width="1.33333" stroke-linecap="round" stroke-linejoin="round"/>
</svg>
