<svg width="25" height="25" viewBox="0 0 25 25" fill="none" xmlns="http://www.w3.org/2000/svg">
<path d="M12.5 22.1504C18.0228 22.1504 22.5 17.6732 22.5 12.1504C22.5 6.62754 18.0228 2.15039 12.5 2.15039C6.97715 2.15039 2.5 6.62754 2.5 12.1504C2.5 17.6732 6.97715 22.1504 12.5 22.1504Z" stroke="white" stroke-width="2" stroke-linecap="round" stroke-linejoin="round"/>
<path d="M9.58984 9.14998C9.82495 8.48165 10.289 7.91809 10.8998 7.55912C11.5106 7.20014 12.2287 7.06892 12.927 7.1887C13.6253 7.30847 14.2587 7.67151 14.7149 8.21351C15.1712 8.75552 15.4209 9.44151 15.4198 10.15C15.4198 12.15 12.4198 13.15 12.4198 13.15" stroke="white" stroke-width="2" stroke-linecap="round" stroke-linejoin="round"/>
<path d="M12.5 17.1504H12.51" stroke="white" stroke-width="2" stroke-linecap="round" stroke-linejoin="round"/>
</svg>
