<svg width="25" height="24" viewBox="0 0 25 24" fill="none" xmlns="http://www.w3.org/2000/svg">
<path d="M19.8301 3H5.83008C4.72551 3 3.83008 3.89543 3.83008 5V19C3.83008 20.1046 4.72551 21 5.83008 21H19.8301C20.9346 21 21.8301 20.1046 21.8301 19V5C21.8301 3.89543 20.9346 3 19.8301 3Z" stroke="#16A34A" stroke-width="2" stroke-linecap="round" stroke-linejoin="round"/>
<path d="M9.83008 11C10.9346 11 11.8301 10.1046 11.8301 9C11.8301 7.89543 10.9346 7 9.83008 7C8.72551 7 7.83008 7.89543 7.83008 9C7.83008 10.1046 8.72551 11 9.83008 11Z" stroke="#16A34A" stroke-width="2" stroke-linecap="round" stroke-linejoin="round"/>
<path d="M21.8301 14.9997L18.7441 11.9137C18.369 11.5388 17.8604 11.3281 17.3301 11.3281C16.7997 11.3281 16.2911 11.5388 15.9161 11.9137L6.83008 20.9997" stroke="#16A34A" stroke-width="2" stroke-linecap="round" stroke-linejoin="round"/>
</svg>
