<svg width="33" height="32" viewBox="0 0 33 32" fill="none" xmlns="http://www.w3.org/2000/svg">
<path d="M8.6595 21.3307C15.3262 21.3307 17.9928 10.6641 24.6595 10.6641C26.074 10.6641 27.4305 11.226 28.4307 12.2262C29.4309 13.2264 29.9928 14.5829 29.9928 15.9974C29.9928 17.4119 29.4309 18.7684 28.4307 19.7686C27.4305 20.7688 26.074 21.3307 24.6595 21.3307C17.9928 21.3307 15.3262 10.6641 8.6595 10.6641C7.24502 10.6641 5.88846 11.226 4.88827 12.2262C3.88808 13.2264 3.32617 14.5829 3.32617 15.9974C3.32617 17.4119 3.88808 18.7684 4.88827 19.7686C5.88846 20.7688 7.24502 21.3307 8.6595 21.3307Z" stroke="white" stroke-width="2.99167" stroke-linecap="round" stroke-linejoin="round"/>
</svg>
