<svg width="20" height="21" viewBox="0 0 20 21" fill="none" xmlns="http://www.w3.org/2000/svg">
<path d="M2.08309 14.3171C1.50095 11.5698 1.50095 8.731 2.08309 5.98372C2.15959 5.70473 2.30738 5.45045 2.51193 5.2459C2.71649 5.04134 2.97077 4.89355 3.24976 4.81706C7.7193 4.07661 12.2802 4.07661 16.7498 4.81706C17.0288 4.89355 17.283 5.04134 17.4876 5.2459C17.6921 5.45045 17.8399 5.70473 17.9164 5.98372C18.4986 8.731 18.4986 11.5698 17.9164 14.3171C17.8399 14.596 17.6921 14.8503 17.4876 15.0549C17.283 15.2594 17.0288 15.4072 16.7498 15.4837C12.2802 16.2243 7.71929 16.2243 3.24976 15.4837C2.97077 15.4072 2.71649 15.2594 2.51193 15.0549C2.30738 14.8503 2.15959 14.596 2.08309 14.3171Z" stroke="#52525B" stroke-width="1.66667" stroke-linecap="round" stroke-linejoin="round"/>
<path d="M8.33398 12.6484L12.5007 10.1484L8.33398 7.64844V12.6484Z" stroke="#52525B" stroke-width="1.66667" stroke-linecap="round" stroke-linejoin="round"/>
</svg>
